<svg viewBox="0 0 250.44 23.23" xmlns="http://www.w3.org/2000/svg"><g fill="#fff"><path d="m0 0h18.07v5.48h-18.07z"/><path d="m0 8.86h15.43v5.48h-15.43z"/><path d="m0 17.73h18.07v5.48h-18.07z"/><path d="m44.8 0h-19.42v5.48h11.7l-11.7 12.25v5.48h19.42v-5.48h-11.71l11.71-12.25z"/><path d="m68.62 23.21h-16.57v-5.36s9.41-8.44 9.9-8.99c.52-.57 1.02-1.35 1.02-2.1 0-.92-.8-1.78-1.68-1.78s-1.79.2-2.66.61c-.86.41-1.77.98-2.72 1.73l-3.82-3.47c.66-.56 3.99-2.85 5-3.2 1.16-.5 1.94-.65 3.36-.65 1.55 0 2.88.27 4 .82 1.12.54 1.98 1.28 2.59 2.21s.91 1.98.91 3.16c0 1.26-.26 2.42-.78 3.46-.52 1.05-1.27 2.08-2.26 3.11s-5.55 5.09-5.55 5.09h9.27v5.36z"/><path d="m94.47 23.23h6.11l-9.24-23.23h-6.12l-9.24 23.23h6.11l2.14-5.38h8.1zm-8.41-9.98 2.22-5.58 2.22 5.58z"/><path d="m123.35 14.09v-.11c1.9-1.3 3.19-3.71 3.19-6.48 0-4.14-2.86-7.5-6.39-7.5-.19 0-.38.01-.57.03v-.03h-11.65v23.23h5.38v-7.64h3.85l4.75 7.64h6.27zm-5.83-3.29h-4.21s0-6.21 0-6.21h4.21c1.46.02 2.65 1.4 2.65 3.11s-1.18 3.08-2.65 3.1z"/><path d="m149.59 17.43c-.85.44-1.81.7-2.83.7-3.49 0-6.32-2.92-6.32-6.51s2.83-6.51 6.32-6.51c1.02 0 1.98.25 2.83.7l3.34-3.89c-1.77-1.22-3.89-1.92-6.17-1.92-6.22 0-11.26 5.2-11.26 11.61s5.04 11.61 11.26 11.61c2.28 0 4.4-.7 6.17-1.9z"/><path d="m174.8 0v8.95h-9.16v-8.82h-5.4v23.08h5.4v-8.81h9.16v8.68h5.4v-23.08z"/><path d="m187.51 0h6.04v23.23h-6.04z"/><path d="m212.96 15.57-6.09-15.57h-6.01l9.09 23.23h6.03l9.08-23.23h-6.01l-6.09 15.57m0 0"/><path d="m232.37 0h18.07v5.48h-18.07z"/><path d="m232.37 8.87h15.43v5.48h-15.43z"/><path d="m232.37 17.74h18.07v5.48h-18.07z"/></g></svg>