<svg viewBox="0 0 1920 80.26" xmlns="http://www.w3.org/2000/svg" xmlns:xlink="http://www.w3.org/1999/xlink"><linearGradient id="a" gradientUnits="userSpaceOnUse" x1="960" x2="960" y1="80" y2="0"><stop offset="0" stop-color="#2a1c58"/><stop offset=".41" stop-color="#1c1240"/><stop offset="1" stop-color="#0b0621"/></linearGradient><linearGradient id="b" gradientUnits="userSpaceOnUse" x1="1510.72" x2="1510.72" y1="80.26" y2="52.55"><stop offset=".45" stop-color="#303260"/><stop offset="1" stop-color="#21244f"/></linearGradient><linearGradient id="c" gradientUnits="userSpaceOnUse" x1="1521.34" x2="1521.34" y1="80.26" y2="52.55"><stop offset=".61" stop-color="#1e1c44"/><stop offset="1" stop-color="#0f0f2f"/></linearGradient><linearGradient id="d" gradientUnits="userSpaceOnUse" x1="1512.75" x2="1512.75" y1="52.55" y2="25.78"><stop offset=".25" stop-color="#d8c8fe"/><stop offset="1" stop-color="#8b83d6"/></linearGradient><linearGradient id="e" gradientUnits="userSpaceOnUse" x1="1332.52" x2="1332.52" y1="33.94" y2=".26"><stop offset="0" stop-color="#e3dcf9" stop-opacity="0"/><stop offset=".1" stop-color="#dfd8f7" stop-opacity=".04"/><stop offset=".25" stop-color="#d7d0f4" stop-opacity=".13"/><stop offset=".42" stop-color="#c9c2ee" stop-opacity=".29"/><stop offset=".63" stop-color="#b6aee7" stop-opacity=".51"/><stop offset=".85" stop-color="#9d95dd" stop-opacity=".79"/><stop offset="1" stop-color="#8b83d6"/></linearGradient><linearGradient id="f" x1="1469.01" x2="1469.01" xlink:href="#e" y1="26.02"/><linearGradient id="g" x1="1562.53" x2="1562.53" xlink:href="#e" y1="35.34"/><linearGradient id="h" x1="1394.74" x2="1394.74" xlink:href="#e" y1="44.13" y2=".26"/><linearGradient id="i" x1="1458.12" x2="1458.12" xlink:href="#b" y2="60.53"/><linearGradient id="j" x1="1467.08" x2="1467.08" xlink:href="#c" y2="60.53"/><linearGradient id="k" x1="1459.5" x2="1459.5" xlink:href="#d" y1="60.53" y2="40.99"/><linearGradient id="l" x1="1267.1" x2="1267.1" xlink:href="#b" y2="57.58"/><linearGradient id="m" x1="1278.7" x2="1278.7" xlink:href="#c" y2="57.58"/><linearGradient id="n" x1="1277.39" x2="1277.39" xlink:href="#d" y1="57.58" y2="17.1"/><linearGradient id="o" x1="1268.84" x2="1268.84" xlink:href="#d" y1="57.58" y2="41.9"/><linearGradient id="p" x1="1266.65" x2="1266.65" xlink:href="#d" y1="57.58" y2="27.65"/><path d="m0 0h1920v80h-1920z" fill="url(#a)"/><path d="m1501.89 52.55 1.47 27.71h14.94l1.26-27.71z" fill="url(#b)"/><path d="m1519.56 52.55-1.26 27.71h4.62.21l1.26-27.71z" fill="url(#c)"/><path d="m1522.97 34.9s-.01 0-.02-.01c-.16-.09-.33-.18-.5-.26-3.7-1.94-7.73-5.3-9.66-8.85-1.95 3.5-5.77 6.81-9.48 8.73-.28.11-.54.25-.8.4 0 0-.02 0-.02.01-2.44 1.41-4.11 4.29-4.11 7.62 0 4.72 3.36 8.54 7.5 8.54 2.75 0 5.15-1.69 6.46-4.2v5.66h.63v-6.09c1.25 2.75 3.76 4.63 6.67 4.63 4.14 0 7.5-3.82 7.5-8.54 0-3.35-1.69-6.25-4.16-7.65z" fill="url(#d)"/><path d="m1350.66 33.94h-36.27l8.45-33.68h20.03z" fill="url(#e)"/><path d="m1482.89 26.02h-27.75l6.47-25.76h15.32z" fill="url(#f)"/><path d="m1581.42 35.34h-37.78l8.81-35.08h20.86z" fill="url(#g)"/><path d="m1418.37 44.13h-47.25l11.01-43.87h26.1z" fill="url(#h)"/><path d="m1450.67 60.53 1.24 19.73h12.6l1.07-19.73z" fill="url(#i)"/><path d="m1465.58 60.53-1.07 19.73h3.91.17l1.07-19.73z" fill="url(#j)"/><path d="m1466.99 52.44c-1.08-4.22-6.25-10.31-7.63-11.45-1.41 1.22-6.63 7.55-7.44 11.81-.02.07-.03.14-.04.21v.02c-.04.26-.07.54-.07.81 0 2.63 2.03 4.76 4.53 4.76 1.04 0 2-.37 2.77-.99v2.92h.64v-3.03c.79.69 1.8 1.1 2.9 1.1 2.5 0 4.53-2.13 4.53-4.76 0-.49-.07-.96-.2-1.4z" fill="url(#k)"/><path d="m1255.99 57.58 5.8 22.68h11.37l5.05-22.68z" fill="url(#l)"/><path d="m1278.21 57.58-5.05 22.68h5.38l5.71-22.68z" fill="url(#m)"/><path d="m1280.82 19.96c0-.27-.05-.54-.13-.81-.53-1.62-2.44-2.45-4.26-1.85-1.58.52-2.47 1.9-2.46 3.36v1.51 35.41h.74v-34.54l.22.26 5.14 10.8.76-14s0-.03 0-.05v-.09s0 0 0 0z" fill="url(#n)"/><path d="m1270.51 43.88c-.36-1.13-1.95-2.31-3.22-1.89-1.1.36-1.72 1.32-1.72 2.35v.04 13.2h.74v-11.03l5.79 7.12c-.53-3.37-1.06-8.3-1.59-9.78z" fill="url(#o)"/><path d="m1267.61 27.84c-1.82-.6-3.73.23-4.26 1.85-.09.27-.13.54-.13.81s0 .08 0 .08v.05l.22 13.46 5.68-10.26v23.73h.95v-26.35c.11-1.42-.88-2.84-2.46-3.36z" fill="url(#p)"/></svg>